<?xml version="1.0" standalone="no"?>
<svg viewBox="0 0 1024 768" version="1.1" xmlns="http://www.w3.org/2000/svg" xmlns:xlink="http://www.w3.org/1999/xlink" stroke-linecap="round" stroke-linejoin="round" fill-rule="evenodd" xml:space="preserve" >
<defs >
<clipPath id="clipId0" >
<path d="M0,768 1024,768 1024,0 0,0 z" />
</clipPath>
</defs>
<g clip-path="url(#clipId0)" fill="none" stroke="rgb(0,0,0)" stroke-width="0.1" />
<g clip-path="url(#clipId0)" fill="none" stroke="rgb(0,0,0)" stroke-width="0.25" >
<polyline points="526.764,258.51 526.764,273.273 " />
<polyline points="526.764,258.51 659.636,258.51 " />
<polyline points="659.636,553.781 659.636,258.51 " />
<polyline points="615.345,553.781 659.636,553.781 " />
<polyline points="630.108,583.308 615.345,553.781 " />
<polyline points="630.108,583.308 659.636,583.308 " />
<polyline points="659.636,612.835 659.636,583.308 " />
<path d="M600.581,671.889  A59.0542,59.0542 0 0,0 659.636,612.835 " />
<polyline points="423.419,671.889 600.581,671.889 " />
<path d="M364.364,612.835  A59.0542,59.0542 0 0,0 423.419,671.889 " />
<polyline points="364.364,612.835 364.364,583.308 " />
<polyline points="364.364,583.308 600.581,583.308 " />
<polyline points="600.581,583.308 585.818,553.781 " />
<polyline points="526.764,553.781 585.818,553.781 " />
<polyline points="526.764,539.017 526.764,553.781 " />
<polyline points="526.764,539.017 644.872,539.017 " />
<polyline points="644.872,509.49 644.872,539.017 " />
<polyline points="547.108,509.49 644.872,509.49 " />
<polyline points="547.108,509.49 644.872,302.8 " />
<polyline points="644.872,273.273 644.872,302.8 " />
<polyline points="526.764,273.273 644.872,273.273 " />
<polyline points="497.236,22.9092 497.236,22.293 " />
<path d="M470.17,52.3336  A29.5271,29.5271 0 0,0 497.236,22.9092 " />
<path d="M470.17,52.3336  A147.636,147.636 0 0,0 334.837,199.456 " />
<polyline points="334.837,612.835 334.837,199.456 " />
<path d="M334.837,612.835  A88.5813,88.5813 0 0,0 423.419,701.416 " />
<polyline points="423.419,701.416 423.419,745.707 " />
<path d="M423.419,745.707  A14.7636,14.7636 0 0,0 452.946,745.707 " />
<polyline points="452.946,701.416 452.946,745.707 " />
<polyline points="452.946,701.416 470.662,701.416 " />
<polyline points="470.662,701.416 470.662,745.707 " />
<path d="M470.662,745.707  A14.7636,14.7636 0 0,0 500.189,745.707 " />
<polyline points="500.189,701.416 500.189,745.707 " />
<polyline points="500.189,701.416 523.811,701.416 " />
<polyline points="523.811,701.416 523.811,745.707 " />
<path d="M523.811,745.707  A14.7636,14.7636 0 0,0 553.338,745.707 " />
<polyline points="553.338,701.416 553.338,745.707 " />
<polyline points="553.338,701.416 571.054,701.416 " />
<polyline points="571.054,701.416 571.054,745.707 " />
<path d="M571.054,745.707  A14.7636,14.7636 0 0,0 600.581,745.707 " />
<polyline points="600.581,701.416 600.581,745.707 " />
<path d="M600.581,701.416  A88.5813,88.5813 0 0,0 689.163,612.835 " />
<polyline points="689.163,612.835 689.163,199.456 " />
<path d="M689.163,199.456  A147.636,147.636 0 0,0 553.83,52.3336 " />
<path d="M526.764,22.9092  A29.5271,29.5271 0 0,0 553.83,52.3336 " />
<polyline points="526.764,22.293 526.764,22.9092 " />
<path d="M526.764,22.293  A14.7636,14.7636 0 0,0 497.236,22.293 " />
<polyline points="364.364,258.51 438.182,258.51 " />
<polyline points="438.182,258.51 423.419,228.983 " />
<polyline points="364.364,228.983 423.419,228.983 " />
<polyline points="364.364,228.983 364.364,199.456 " />
<path d="M482.473,81.3472  A118.108,118.108 0 0,0 364.364,199.456 " />
<polyline points="482.473,81.3472 541.527,81.3472 " />
<path d="M659.636,199.456  A118.108,118.108 0 0,0 541.527,81.3472 " />
<polyline points="659.636,228.983 659.636,199.456 " />
<polyline points="452.946,228.983 659.636,228.983 " />
<polyline points="467.709,258.51 452.946,228.983 " />
<polyline points="467.709,258.51 497.236,258.51 " />
<polyline points="497.236,258.51 497.236,273.273 " />
<polyline points="482.473,273.273 497.236,273.273 " />
<polyline points="482.473,273.273 482.473,456.341 " />
<polyline points="482.473,456.341 408.655,273.273 " />
<polyline points="379.128,273.273 408.655,273.273 " />
<polyline points="379.128,273.273 379.128,539.017 " />
<polyline points="379.128,539.017 408.655,539.017 " />
<polyline points="408.655,539.017 408.655,355.949 " />
<polyline points="408.655,355.949 482.473,539.017 " />
<polyline points="482.473,539.017 497.236,539.017 " />
<polyline points="497.236,539.017 497.236,553.781 " />
<polyline points="364.364,553.781 497.236,553.781 " />
<polyline points="364.364,553.781 364.364,258.51 " />
<polyline points="609.764,302.8 512,509.49 " />
<polyline points="512,509.49 512,302.8 " />
<polyline points="512,302.8 609.764,302.8 " />
</g>
</svg>
